<svg width="48" height="48" fill="none" xmlns="http://www.w3.org/2000/svg"><path d="M41.85 26.35c.1-.75.15-1.525.15-2.35 0-.8-.05-1.6-.175-2.35L46.9 17.7c.45-.35.575-1.025.3-1.525l-4.8-8.3c-.3-.55-.925-.725-1.475-.55l-5.975 2.4c-1.25-.95-2.575-1.75-4.05-2.35l-.9-6.35C29.9.425 29.4 0 28.8 0h-9.6c-.6 0-1.075.425-1.175 1.025l-.9 6.35c-1.475.6-2.825 1.425-4.05 2.35L7.1 7.325c-.55-.2-1.175 0-1.475.55l-4.775 8.3c-.3.525-.2 1.175.3 1.525l5.075 3.95C6.1 22.4 6 23.225 6 24c0 .775.05 1.6.175 2.35L1.1 30.3c-.45.35-.575 1.025-.3 1.525l4.8 8.3c.3.55.925.725 1.475.55l5.975-2.4c1.25.95 2.575 1.75 4.05 2.35l.9 6.35c.125.6.6 1.025 1.2 1.025h9.6c.6 0 1.1-.425 1.175-1.025l.9-6.35c1.475-.6 2.825-1.4 4.05-2.35l5.975 2.4c.55.2 1.175 0 1.475-.55l4.8-8.3c.3-.55.175-1.175-.3-1.525l-5.025-3.95zM24 33c-4.95 0-9-4.05-9-9s4.05-9 9-9 9 4.05 9 9-4.05 9-9 9z" fill="#4A1B6E"/></svg>