<svg width="50" height="50" fill="none" xmlns="http://www.w3.org/2000/svg"><path d="M25 0C11.2 0 0 11.2 0 25s11.2 25 25 25 25-11.2 25-25S38.8 0 25 0zm2.2 39.4v3.1h-4.375v-3.225c-1.85-.45-5.975-1.925-7.55-7.4L19.4 30.2c.15.55 1.45 5.225 6 5.225 2.325 0 4.95-1.2 4.95-4.025 0-2.4-1.75-3.65-5.7-5.075-2.75-.975-8.375-2.575-8.375-8.275 0-.25.025-6 6.55-7.4V7.5H27.2v3.1c4.6.8 6.275 4.475 6.65 5.575L29.9 17.85c-.275-.875-1.475-3.35-4.75-3.35-1.75 0-4.525.925-4.525 3.475 0 2.375 2.15 3.275 6.6 4.75 6 2.075 7.525 5.125 7.525 8.625 0 6.575-6.25 7.825-7.55 8.05z" fill="#4A1B6E"/></svg>