<svg width="56" height="40" fill="none" xmlns="http://www.w3.org/2000/svg"><path d="M48 10h-7.5V0h-35c-2.75 0-5 2.25-5 5v27.5h5c0 4.15 3.35 7.5 7.5 7.5s7.5-3.35 7.5-7.5h15c0 4.15 3.35 7.5 7.5 7.5s7.5-3.35 7.5-7.5h5V20L48 10zM13 36.25a3.745 3.745 0 01-3.75-3.75A3.745 3.745 0 0113 28.75a3.745 3.745 0 013.75 3.75A3.745 3.745 0 0113 36.25zm33.75-22.5l4.9 6.25H40.5v-6.25h6.25zM43 36.25a3.745 3.745 0 01-3.75-3.75A3.745 3.745 0 0143 28.75a3.745 3.745 0 013.75 3.75A3.745 3.745 0 0143 36.25z" fill="#F36E0D"/></svg>