<svg width="56" height="46" fill="none" xmlns="http://www.w3.org/2000/svg"><path d="M15.5 20.5v5h25v-5c0-4.65 3.2-8.525 7.5-9.65V8C48 3.875 44.625.5 40.5.5h-25C11.375.5 8 3.875 8 8v2.85c4.3 1.125 7.5 5 7.5 9.65z" fill="#4A1B6E"/><path d="M50.5 15.5c-2.75 0-5 2.25-5 5v10h-35v-10c0-2.75-2.25-5-5-5s-5 2.25-5 5V33c0 4.125 3.375 7.5 7.5 7.5V43c0 1.375 1.125 2.5 2.5 2.5S13 44.375 13 43v-2.5h30V43c0 1.375 1.125 2.5 2.5 2.5S48 44.375 48 43v-2.5c4.125 0 7.5-3.375 7.5-7.5V20.5c0-2.75-2.25-5-5-5z" fill="#4A1B6E"/></svg>